HIERARCHY
ROOT Hips
{
	OFFSET 0.000000 0.000000 0.000000
	CHANNELS 6 Xposition Yposition Zposition Xrotation Yrotation Zrotation
	JOINT LeftUpLeg_virtual
	{
		OFFSET 0.000000 0.000000 0.000000
		CHANNELS 3 Xrotation Yrotation Zrotation
		JOINT LeftUpLeg
		{
			OFFSET 15.427100 -6.655098 0.678600
			CHANNELS 3 Xrotation Yrotation Zrotation
			JOINT LeftLeg
			{
				OFFSET 4.081073 -39.591068 13.024000
				CHANNELS 3 Xrotation Yrotation Zrotation
				JOINT LeftFoot
				{
					OFFSET -4.081074 -37.707932 -15.979700
					CHANNELS 3 Xrotation Yrotation Zrotation
					JOINT LeftToeBase
					{
						OFFSET 5.346399 -15.068900 20.645000
						CHANNELS 3 Xrotation Yrotation Zrotation
						JOINT LeftToe_End
						{
							OFFSET 2.754700 0.931300 11.300900
							CHANNELS 3 Xrotation Yrotation Zrotation
							End Site
							{
								OFFSET 0 0 0
							}
						}
					}
				}
			}
		}
	}
	JOINT RightUpLeg_virtual
	{
		OFFSET 0.000000 0.000000 0.000000
		CHANNELS 3 Xrotation Yrotation Zrotation
		JOINT RightUpLeg
		{
			OFFSET -15.569500 -6.655098 0.678600
			CHANNELS 3 Xrotation Yrotation Zrotation
			JOINT RightLeg
			{
				OFFSET -4.081825 -39.591045 13.023800
				CHANNELS 3 Xrotation Yrotation Zrotation
				JOINT RightFoot
				{
					OFFSET 4.081824 -37.707954 -15.979600
					CHANNELS 3 Xrotation Yrotation Zrotation
					JOINT RightToeBase
					{
						OFFSET -5.346400 -15.068900 20.645000
						CHANNELS 3 Xrotation Yrotation Zrotation
						JOINT RightToe_End
						{
							OFFSET -2.754700 0.931300 11.300900
							CHANNELS 3 Xrotation Yrotation Zrotation
							End Site
							{
								OFFSET 0 0 0
							}
						}
					}
				}
			}
		}
	}
	JOINT Spine_virtual
	{
		OFFSET 0.000000 0.000000 0.000000
		CHANNELS 3 Xrotation Yrotation Zrotation
		JOINT Spine
		{
			OFFSET -0.279200 12.230698 -2.892100
			CHANNELS 3 Xrotation Yrotation Zrotation
			JOINT Spine1
			{
				OFFSET -0.232667 10.192268 -1.242267
				CHANNELS 3 Xrotation Yrotation Zrotation
				JOINT Spine1_split
				{
					OFFSET -0.232667 10.192268 -1.242267
					CHANNELS 3 Xrotation Yrotation Zrotation
					JOINT Spine2
					{
						OFFSET -0.232667 10.192268 -1.242267
						CHANNELS 3 Xrotation Yrotation Zrotation
						JOINT Neck_virtual
						{
							OFFSET 0.000000 0.000000 0.000000
							CHANNELS 3 Xrotation Yrotation Zrotation
							JOINT Neck
							{
								OFFSET -0.418800 17.814194 8.416900
								CHANNELS 3 Xrotation Yrotation Zrotation
								JOINT Head
								{
									OFFSET 0.000000 7.031097 3.806800
									CHANNELS 3 Xrotation Yrotation Zrotation
									JOINT HeadTop_End
									{
										OFFSET 0.000000 24.646606 12.978600
										CHANNELS 3 Xrotation Yrotation Zrotation
										End Site
										{
											OFFSET 0 0 0
										}
									}
								}
							}
						}
						JOINT LeftShoulder_virtual
						{
							OFFSET 0.000000 0.000000 0.000000
							CHANNELS 3 Xrotation Yrotation Zrotation
							JOINT LeftShoulder
							{
								OFFSET 8.476499 7.247704 -3.868750
								CHANNELS 3 Xrotation Yrotation Zrotation
								JOINT LeftShoulder_split
								{
									OFFSET 8.476499 7.247704 -3.868750
									CHANNELS 3 Xrotation Yrotation Zrotation
									JOINT LeftArm
									{
										OFFSET 9.308998 -2.777710 0.208600
										CHANNELS 3 Xrotation Yrotation Zrotation
										JOINT LeftForeArm
										{
											OFFSET 29.972298 0.000000 0.000000
											CHANNELS 3 Xrotation Yrotation Zrotation
											JOINT LeftHand
											{
												OFFSET 26.026505 0.000000 0.000000
												CHANNELS 3 Xrotation Yrotation Zrotation
												End Site
												{
													OFFSET 0 0 0
												}
											}
										}
									}
								}
							}
						}
						JOINT RightShoulder_virtual
						{
							OFFSET 0.000000 0.000000 0.000000
							CHANNELS 3 Xrotation Yrotation Zrotation
							JOINT RightShoulder
							{
								OFFSET -7.570500 7.247704 -3.868750
								CHANNELS 3 Xrotation Yrotation Zrotation
								JOINT RightShoulder_split
								{
									OFFSET -7.570500 7.247704 -3.868750
									CHANNELS 3 Xrotation Yrotation Zrotation
									JOINT RightArm
									{
										OFFSET -9.308998 -2.777710 0.208500
										CHANNELS 3 Xrotation Yrotation Zrotation
										JOINT RightForeArm
										{
											OFFSET -29.972300 0.000000 0.000000
											CHANNELS 3 Xrotation Yrotation Zrotation
											JOINT RightHand
											{
												OFFSET -26.026505 0.000000 0.000000
												CHANNELS 3 Xrotation Yrotation Zrotation
												End Site
												{
													OFFSET 0 0 0
												}
											}
										}
									}
								}
							}
						}
					}
				}
			}
		}
	}
}
MOTION
Frames: 11
Frame Time: 0.03333333
0.535091 92.474411 -0.012215 0.000000 0.000000 0.000000 -19.757137 -82.289600 -21.311165 -15.880545 14.895451 10.137345 25.358947 -3.152465 4.643569 -8.037329 1.167549 -7.491691 -0.000019 -0.000015 -0.000002 0.000000 0.000000 0.000000 -19.757137 -82.289600 -21.311165 -11.746251 -23.524575 -8.121864 22.444427 9.379117 -8.088016 -8.887072 -1.848171 10.340209 -0.001928 -0.000007 -0.000000 0.000000 0.000000 0.000000 -19.757137 -82.289600 -21.311165 2.270308 0.112165 0.409490 4.588851 0.048052 1.587649 0.000000 0.000000 0.000000 0.000000 0.000000 0.000000 4.566501 0.058988 1.631779 -6.449450 9.163143 -4.228991 1.306332 37.856658 -3.127864 0.000000 0.000000 0.000000 4.566501 0.058988 1.631779 -0.232474 4.637873 -1.359674 0.000000 0.000000 0.000000 25.122255 -77.231244 -42.206280 -0.000002 -14.145796 -0.000005 0.000000 0.000000 0.000000 4.566501 0.058988 1.631779 1.612992 4.329169 7.043632 0.000000 0.000000 0.000000 8.595127 25.593754 60.579536 0.000004 32.803664 -0.000025 0.000000 0.000000 0.000000 
0.523912 92.499786 -0.020823 0.000000 0.000000 0.000000 -19.988784 -82.271220 -21.538168 -15.808724 14.908201 10.116243 25.295684 -3.149713 4.660227 -8.008815 1.170209 -7.499447 -0.000039 0.000012 0.000000 0.000000 0.000000 0.000000 -19.988784 -82.271220 -21.538168 -11.661891 -23.545820 -8.110238 22.377472 9.399375 -8.076755 -8.867090 -1.855863 10.331568 -0.001978 -0.000016 -0.000001 0.000000 0.000000 0.000000 -19.988784 -82.271220 -21.538168 2.258798 0.090530 0.416914 4.568350 0.010020 1.625759 0.000000 0.000000 0.000000 0.000000 0.000000 0.000000 4.545689 0.020613 1.669545 -6.358688 9.200894 -4.344189 1.308286 37.902571 -3.127767 0.000000 0.000000 0.000000 4.545689 0.020613 1.669545 -0.236515 4.731590 -1.616345 0.000000 0.000000 0.000000 28.224941 -77.569079 -39.068235 -0.000003 -14.159484 -0.000013 0.000000 0.000000 0.000000 4.545689 0.020613 1.669545 1.625856 4.410191 6.848790 0.000000 0.000000 0.000000 8.546710 25.709153 60.700970 -0.000003 32.649670 0.000003 0.000000 0.000000 0.000000 
0.514485 92.525742 -0.026709 0.000000 0.000000 0.000000 -20.173573 -82.247007 -21.736302 -15.736927 14.864705 10.119384 25.236390 -3.132713 4.658320 -7.986615 1.171552 -7.514077 -0.000001 -0.000017 0.000002 0.000000 0.000000 0.000000 -20.173573 -82.247007 -21.736302 -11.559703 -23.547624 -8.091271 22.287623 9.400964 -8.029115 -8.837491 -1.865564 10.314624 -0.002023 0.000017 -0.000004 0.000000 0.000000 0.000000 -20.173573 -82.247007 -21.736302 2.243477 0.061854 0.445648 4.538629 -0.042542 1.674177 0.000000 0.000000 0.000000 0.000000 0.000000 0.000000 4.515267 -0.031862 1.717976 -6.262548 9.243655 -4.465036 1.306198 37.967779 -3.122503 0.000000 0.000000 0.000000 4.515267 -0.031862 1.717976 -0.241919 4.857625 -1.946193 0.000000 0.000000 0.000000 31.985919 -77.874019 -35.281458 0.000005 -14.201007 0.000014 0.000000 0.000000 0.000000 4.515267 -0.031862 1.717976 1.642506 4.513237 6.629211 0.000000 0.000000 0.000000 8.509112 25.847483 60.828463 -0.000011 32.462195 0.000006 0.000000 0.000000 0.000000 
0.518067 92.546852 -0.036108 0.000000 0.000000 0.000000 -20.202911 -82.216490 -21.784644 -15.697675 14.774686 10.119946 25.191905 -3.089934 4.666171 -7.959184 1.174077 -7.544194 -0.000086 -0.000000 0.000002 0.000000 0.000000 0.000000 -20.202911 -82.216490 -21.784644 -11.485831 -23.549374 -8.069351 22.209571 9.395938 -7.980577 -8.805615 -1.883174 10.294954 -0.002109 0.000000 -0.000002 0.000000 0.000000 0.000000 -20.202911 -82.216490 -21.784644 2.235190 0.037804 0.490900 4.519638 -0.089360 1.726252 0.000000 0.000000 0.000000 0.000000 0.000000 0.000000 4.495336 -0.077923 1.770642 -6.186663 9.287374 -4.580750 1.286598 38.041739 -3.116077 0.000000 0.000000 0.000000 4.495336 -0.077923 1.770642 -0.246491 4.979589 -2.258061 0.000000 0.000000 0.000000 35.894891 -78.150977 -31.336792 0.000002 -14.217753 0.000008 0.000000 0.000000 0.000000 4.495336 -0.077923 1.770642 1.659758 4.618652 6.455626 0.000000 0.000000 0.000000 8.485929 25.881247 60.941065 0.000011 32.359565 -0.000016 0.000000 0.000000 0.000000 
0.557753 92.545509 -0.064583 0.000000 0.000000 0.000000 -20.012854 -82.208198 -21.604821 -15.751832 14.684111 10.111279 25.199109 -3.004440 4.714282 -7.920923 1.183378 -7.605741 -0.000027 0.000015 0.000002 0.000000 0.000000 0.000000 -20.012854 -82.208198 -21.604821 -11.521633 -23.518805 -8.030411 22.222097 9.372947 -7.993511 -8.787469 -1.919241 10.284889 -0.002262 0.000010 0.000002 0.000000 0.000000 0.000000 -20.012854 -82.208198 -21.604821 2.246895 0.037152 0.531088 4.537763 -0.095043 1.771961 0.000000 0.000000 0.000000 0.000000 0.000000 0.000000 4.512693 -0.082137 1.817280 -6.156682 9.325406 -4.676050 1.213319 38.112626 -3.117113 0.000000 0.000000 0.000000 4.512693 -0.082137 1.817280 -0.248987 5.035881 -2.392461 0.000000 0.000000 0.000000 39.219015 -78.480718 -27.926359 -0.000003 -14.133333 -0.000010 0.000000 0.000000 0.000000 4.512693 -0.082137 1.817280 1.673018 4.701749 6.407462 0.000000 0.000000 0.000000 8.466747 25.643971 61.012495 -0.000013 32.534305 0.000014 0.000000 0.000000 0.000000 
0.662731 92.503746 -0.124651 0.000000 0.000000 0.000000 -19.768502 -82.293753 -21.344307 -15.942457 14.701383 10.101171 25.292442 -2.886758 4.831142 -7.874641 1.201867 -7.707799 -0.000098 -0.000015 0.000002 0.000000 0.000000 0.000000 -19.768502 -82.293753 -21.344307 -11.753682 -23.346415 -7.949530 22.426400 9.285197 -8.126040 -8.799225 -1.969633 10.258030 -0.002501 -0.000008 -0.000002 0.000000 0.000000 0.000000 -19.768502 -82.293753 -21.344307 2.287957 0.078658 0.524532 4.616215 -0.019703 1.794978 0.000000 0.000000 0.000000 0.000000 0.000000 0.000000 4.591256 -0.005121 1.840726 -6.189006 9.350515 -4.734786 1.020067 38.175041 -3.126557 0.000000 0.000000 0.000000 4.591256 -0.005121 1.840726 -0.250649 5.006631 -2.274218 0.000000 0.000000 0.000000 41.725718 -78.911307 -25.218554 -0.000008 -14.003571 -0.000013 0.000000 0.000000 0.000000 4.591256 -0.005121 1.840726 1.675901 4.724597 6.488809 0.000000 0.000000 0.000000 8.406039 25.091275 61.032228 0.000007 33.144907 -0.000016 0.000000 0.000000 0.000000 
0.858913 92.432976 -0.216478 0.000000 0.000000 0.000000 -20.026828 -82.577301 -21.535081 -16.221132 14.995436 10.075874 25.431934 -2.798126 5.060873 -7.809426 1.223422 -7.850292 -0.000059 0.000009 -0.000003 0.000000 0.000000 0.000000 -20.026828 -82.577301 -21.535081 -12.253768 -22.932481 -7.770740 22.940159 9.058091 -8.466905 -8.861012 -1.957651 10.017543 -0.002825 -0.000007 0.000001 0.000000 0.000000 0.000000 -20.026828 -82.577301 -21.535081 2.358589 0.171047 0.416479 4.764471 0.161645 1.769683 0.000000 0.000000 0.000000 0.000000 0.000000 0.000000 4.741215 0.176965 1.814186 -6.286130 9.357649 -4.745709 0.617475 38.234781 -3.127702 0.000000 0.000000 0.000000 4.741215 0.176965 1.814186 -0.254391 4.960598 -2.026237 0.000000 0.000000 0.000000 43.727701 -79.241095 -22.827828 -0.000002 -14.194359 -0.000003 0.000000 0.000000 0.000000 4.741215 0.176965 1.814186 1.661300 4.637914 6.632722 0.000000 0.000000 0.000000 8.241812 24.398832 60.982477 -0.000008 34.229206 0.000009 0.000000 0.000000 0.000000 
1.168806 92.395256 -0.373528 0.000000 0.000000 0.000000 -21.663620 -83.126250 -22.884870 -16.343244 15.708834 9.850718 25.343642 -2.788587 5.446975 -7.595308 1.240691 -8.068354 -0.000003 0.000010 0.000004 0.000000 0.000000 0.000000 -21.663620 -83.126250 -22.884870 -13.003081 -22.191635 -7.621712 23.664394 8.779529 -8.984664 -8.881833 -1.919385 9.609861 -0.003154 0.000009 0.000004 0.000000 0.000000 0.000000 -21.663620 -83.126250 -22.884870 2.449664 0.304049 0.146877 4.975538 0.440261 1.664655 0.000000 0.000000 0.000000 0.000000 0.000000 0.000000 4.955972 0.453575 1.705378 -6.439788 9.346235 -4.708417 -0.080049 38.304497 -3.092684 0.000000 0.000000 0.000000 4.955972 0.453575 1.705378 -0.263957 5.005625 -1.878758 0.000000 0.000000 0.000000 44.060618 -79.355726 -21.859341 0.000001 -14.492437 0.000005 0.000000 0.000000 0.000000 4.955972 0.453575 1.705378 1.626883 4.421347 6.799936 0.000000 0.000000 0.000000 8.101742 23.760901 60.754191 0.000002 36.086423 0.000006 0.000000 0.000000 0.000000 
1.602614 92.344376 -0.613047 0.000000 0.000000 0.000000 -24.532006 -83.877687 -25.458921 -16.515247 16.519928 9.656972 25.265225 -2.743920 5.953602 -7.334450 1.267814 -8.402561 -0.000102 -0.000015 -0.000007 0.000000 0.000000 0.000000 -24.532006 -83.877687 -25.458921 -13.934080 -21.308829 -7.306889 24.520652 8.512882 -9.565939 -8.824084 -1.836086 9.000184 -0.003289 -0.000007 -0.000000 0.000000 0.000000 0.000000 -24.532006 -83.877687 -25.458921 2.551460 0.448494 -0.294878 5.238243 0.766360 1.451945 0.000000 0.000000 0.000000 0.000000 0.000000 0.000000 5.224070 0.773161 1.486620 -6.639931 9.319404 -4.636212 -1.113915 38.389184 -3.010637 0.000000 0.000000 0.000000 5.224070 0.773161 1.486620 -0.279042 5.169817 -1.916524 0.000000 0.000000 0.000000 42.066404 -77.753487 -22.972098 0.000000 -17.431782 0.000012 0.000000 0.000000 0.000000 5.224070 0.773161 1.486620 1.582225 4.132846 7.024917 0.000000 0.000000 0.000000 7.662046 23.483451 60.522054 0.000019 37.929478 0.000001 0.000000 0.000000 0.000000 
2.142128 92.083786 -1.008678 0.000000 0.000000 0.000000 -28.234995 -84.603661 -28.783862 -17.300313 16.907872 9.437852 25.572018 -2.399120 6.521808 -6.773255 1.304472 -8.828951 -0.001861 -0.000002 0.000002 0.000000 0.000000 0.000000 -28.234995 -84.603661 -28.783862 -15.345355 -20.651898 -7.438743 25.916955 8.512438 -9.513422 -8.940592 -1.600634 7.840485 -0.003468 -0.000036 0.000002 0.000000 0.000000 0.000000 -28.234995 -84.603661 -28.783862 2.667903 0.563407 -0.930834 5.558672 1.059713 1.131479 0.000000 0.000000 0.000000 0.000000 0.000000 0.000000 5.550513 1.055503 1.159664 -6.882450 9.280332 -4.552383 -2.446216 38.469483 -2.921977 0.000000 0.000000 0.000000 5.550513 1.055503 1.159664 -0.296020 5.344331 -1.932668 0.000000 0.000000 0.000000 36.161501 -74.275001 -27.881519 -0.000001 -22.752875 0.000006 0.000000 0.000000 0.000000 5.550513 1.055503 1.159664 1.546224 3.890300 7.324785 0.000000 0.000000 0.000000 7.071498 23.291451 60.264344 0.000013 39.901671 -0.000029 0.000000 0.000000 0.000000 
2.800971 91.559052 -1.511992 0.000000 0.000000 0.000000 -32.140804 -85.172247 -32.281595 -18.464756 16.605091 9.208213 26.402738 -1.556912 7.201571 -6.253425 1.401241 -9.524972 -0.006507 0.000029 0.000000 0.000000 0.000000 0.000000 -32.140804 -85.172247 -32.281595 -17.319985 -20.743884 -7.804801 27.967618 9.012860 -9.470808 -9.238867 -1.246828 6.447364 -0.006725 -0.000002 -0.000001 0.000000 0.000000 0.000000 -32.140804 -85.172247 -32.281595 2.823149 0.606160 -1.589062 5.974230 1.232574 0.743384 0.000000 0.000000 0.000000 0.000000 0.000000 0.000000 5.971208 1.215574 0.767822 -7.168804 9.227406 -4.479391 -3.952988 38.496114 -2.927396 0.000000 0.000000 0.000000 5.971208 1.215574 0.767822 -0.315145 5.370007 -1.597249 0.000000 0.000000 0.000000 28.759010 -69.256534 -34.600287 0.000009 -29.550383 0.000002 0.000000 0.000000 0.000000 5.971208 1.215574 0.767822 1.530755 3.777994 7.601042 0.000000 0.000000 0.000000 8.274661 21.826730 59.429005 0.000006 45.879805 0.000015 0.000000 0.000000 0.000000 
